<svg width="256" height="83" viewBox="0 0 256 83" fill="none" xmlns="http://www.w3.org/2000/svg">
<g id="Logo">
<g id="Graphic text">
<g id="Vector">
<path d="M97.9314 38.5607L97.9055 28.1445L92.7968 36.7262H90.9885L85.9006 28.3673V38.5607H82.1338V21.1952H85.455L91.9574 31.9897L98.3511 21.1952H101.652L101.703 38.5607H97.9314Z" fill="white"/>
<path d="M109.356 37.6952C107.91 36.9179 106.776 35.8452 105.957 34.4823C105.139 33.1194 104.729 31.5854 104.729 29.8805C104.729 28.1756 105.139 26.6416 105.957 25.2787C106.776 23.9158 107.91 22.8431 109.356 22.0658C110.802 21.2884 112.429 20.8998 114.232 20.8998C116.035 20.8998 117.656 21.2884 119.092 22.0658C120.532 22.8431 121.662 23.9158 122.491 25.2787C123.314 26.6416 123.729 28.1756 123.729 29.8805C123.729 31.5854 123.314 33.1194 122.491 34.4823C121.662 35.8452 120.532 36.9179 119.092 37.6952C117.651 38.4726 116.035 38.8612 114.232 38.8612C112.423 38.8612 110.802 38.4726 109.356 37.6952ZM117.004 34.731C117.833 34.2595 118.48 33.6013 118.952 32.7618C119.423 31.9171 119.656 30.9584 119.656 29.8857C119.656 28.813 119.423 27.8491 118.952 27.0096C118.48 26.1649 117.833 25.5067 117.004 25.0352C116.175 24.5636 115.252 24.3304 114.226 24.3304C113.201 24.3304 112.273 24.5636 111.449 25.0352C110.62 25.5067 109.973 26.1649 109.501 27.0096C109.03 27.8543 108.796 28.813 108.796 29.8857C108.796 30.9584 109.035 31.9171 109.501 32.7618C109.973 33.6065 110.62 34.2646 111.449 34.731C112.278 35.2026 113.201 35.4358 114.226 35.4358C115.252 35.4358 116.18 35.2026 117.004 34.731Z" fill="white"/>
<path d="M137.817 38.5607L134.47 33.7257H130.775V38.5607H126.755V21.1952H134.273C135.811 21.1952 137.148 21.4543 138.278 21.9621C139.407 22.4752 140.283 23.2007 140.894 24.1438C141.506 25.087 141.811 26.2012 141.811 27.4915C141.811 28.7819 141.5 29.8961 140.879 30.8288C140.257 31.7616 139.376 32.4768 138.236 32.9743L142.133 38.5555H137.817V38.5607ZM136.796 25.2528C136.169 24.7346 135.252 24.4703 134.045 24.4703H130.77V30.5231H134.045C135.252 30.5231 136.169 30.2588 136.796 29.7302C137.423 29.2016 137.739 28.4554 137.739 27.4967C137.739 26.5225 137.428 25.7762 136.796 25.2528Z" fill="white"/>
<path d="M158.422 35.3374V38.5607H144.982V21.1952H158.101V24.4237H148.977V28.1911H157.034V31.3212H148.977V35.3374H158.422Z" fill="white"/>
<path d="M172.241 24.4703H166.681V21.1952H181.811V24.4703H176.256V38.5607H172.241V24.4703Z" fill="white"/>
<path d="M199.893 21.1952V38.5607H195.872V31.4455H187.987V38.5607H183.971V21.1952H187.987V28.046H195.872V21.1952H199.893Z" fill="white"/>
<path d="M215.442 34.8399H207.38L205.841 38.5607H201.722L209.458 21.1952H213.427L221.188 38.5607H216.97L215.442 34.8399ZM214.178 31.7876L211.427 25.1388L208.675 31.7876H214.178Z" fill="white"/>
<path d="M238.934 21.1952V38.5607H235.633L226.975 28.0201V38.5607H223.007V21.1952H226.333L234.965 31.7409V21.1952H238.934Z" fill="white"/>
</g>
<g id="Vector_2">
<path d="M98.6257 53.8481V60.8958C97.6827 61.6058 96.5895 62.1551 95.3511 62.5334C94.1128 62.9117 92.8641 63.1034 91.6051 63.1034C89.802 63.1034 88.1803 62.72 86.7451 61.953C85.3047 61.186 84.1804 60.1185 83.3617 58.7556C82.5431 57.3927 82.1338 55.8484 82.1338 54.1279C82.1338 52.4074 82.5431 50.8631 83.3617 49.5002C84.1804 48.1373 85.3203 47.0698 86.771 46.3028C88.2269 45.5358 89.8642 45.1523 91.6828 45.1523C93.2061 45.1523 94.5843 45.4063 95.8226 45.9193C97.061 46.4323 98.1024 47.1786 98.9469 48.1528L96.3667 50.5366C95.1283 49.2307 93.631 48.5778 91.8797 48.5778C90.7709 48.5778 89.7865 48.811 88.9264 49.2722C88.0663 49.7334 87.3979 50.3864 86.9161 51.2311C86.4342 52.0757 86.1959 53.0396 86.1959 54.1331C86.1959 55.2058 86.4342 56.1645 86.9161 57.0092C87.3927 57.8539 88.0611 58.512 88.9109 58.9784C89.7606 59.45 90.7347 59.6832 91.8227 59.6832C92.9781 59.6832 94.0196 59.4345 94.947 58.937V53.8481H98.6257Z" fill="#E74011"/>
<path d="M113.781 59.0821H105.719L104.18 62.8029H100.061L107.796 45.4374H111.765L119.527 62.8029H115.309L113.781 59.0821ZM112.517 56.0298L109.765 49.381L107.014 56.0298H112.517Z" fill="#E74011"/>
<path d="M137.143 62.8029L137.117 52.3867L132.008 60.9684H130.2L125.117 52.6095V62.8029H121.345V45.4374H124.667L131.169 56.2319L137.568 45.4374H140.863L140.915 62.8029H137.143Z" fill="#E74011"/>
<path d="M158.474 59.5796V62.8029H145.029V45.4374H158.153V48.6659H149.024V52.4333H157.086V55.5582H149.024V59.5796H158.474Z" fill="#E74011"/>
</g>
</g>
<g id="Symbol">
<g id="Vector_3">
<path d="M40.9735 61.3026C23.9944 61.3026 18.199 50.3667 17.0735 47.8006C17.0837 56.5679 25.7107 65.0667 41.0703 65.0667C56.4298 65.0667 65.0619 56.5627 65.0568 47.7903H65.0517C63.9059 50.3306 57.978 61.3026 40.9735 61.3026Z" fill="white"/>
<path d="M45.3889 35.9869H36.5938C35.7331 35.9869 34.9692 36.4981 34.8877 37.1435L33.7622 46.329C35.947 46.9228 38.3915 47.2584 41.0652 47.2584C43.6675 47.2584 46.056 46.9435 48.1949 46.3755L47.0898 37.1383C47.0083 36.4981 46.2495 35.9869 45.3889 35.9869Z" fill="white"/>
<path d="M41.0703 53.8365C60.2137 53.8365 68.9171 40.6287 63.4628 30.1576L61.767 26.8995C59.0373 21.6587 52.045 18.1632 44.6708 17.2906C51.6376 18.1477 58.09 21.5761 60.3257 26.4916L61.9045 29.9613C66.1874 39.3844 57.6979 50.4752 41.0652 50.4752C24.4324 50.4752 15.9429 39.3792 20.2208 29.9613L21.7995 26.4916C24.4171 20.7242 32.7844 17.0789 41.0448 17.0737C32.4534 17.0789 23.5259 20.812 20.3634 26.8995L18.6675 30.1576C13.2183 40.6287 21.9217 53.8365 41.0703 53.8365Z" fill="white"/>
</g>
<path id="Vector_4" d="M21.799 26.4897L20.2254 29.9594C15.9475 39.3825 24.4421 50.4733 41.0698 50.4733C57.7025 50.4733 66.192 39.3773 61.909 29.9594L60.3303 26.4897C57.1632 19.5263 48.3498 17.0667 41.0494 17.0667C32.7839 17.0718 24.4166 20.7223 21.799 26.4897ZM53.3024 37.8903C52.1922 33.0936 46.7736 29.789 41.0596 29.789C35.3456 29.789 29.932 33.0936 28.8218 37.8903L27.5232 43.4925C26.4792 42.7696 25.5676 41.959 24.7986 41.0915L27.6098 31.3122C28.939 26.6911 34.8719 23.5569 41.0545 23.5569C47.237 23.5569 53.17 26.6911 54.5043 31.3122L57.3205 41.0915C56.5515 41.959 55.6399 42.7644 54.5959 43.4925L53.3024 37.8903ZM51.8714 45.0518C50.7459 45.5784 49.5185 46.0277 48.1944 46.3736C46.0555 46.9364 43.667 47.2565 41.0647 47.2565C38.391 47.2565 35.9465 46.9209 33.7617 46.3271C32.5038 45.9863 31.3376 45.5526 30.2631 45.0518L31.5515 37.8851C32.2339 34.0798 36.466 31.3639 41.0647 31.3639C45.6634 31.3639 49.8954 34.0798 50.5829 37.8851L51.8714 45.0518ZM29.1427 20.9856C32.4224 19.0442 36.7308 17.9238 41.0596 17.9238C45.0984 17.9238 49.201 18.8054 52.7218 20.8255C54.4839 21.8324 55.9608 23.0716 57.0099 24.4967C58.1989 26.1128 58.7897 28.1168 59.5308 29.9594C60.6461 32.7218 60.4882 35.6029 59.2558 38.1949L56.9182 31.3122C55.1001 25.9579 48.1384 22.4313 41.0596 22.4313C33.9756 22.4313 27.019 25.9579 25.2009 31.3122L22.8685 38.1949C21.636 35.5978 21.4782 32.7218 22.5935 29.9594C23.3345 28.1168 23.9253 26.1128 25.1143 24.4967C26.1074 23.1439 27.4926 21.9615 29.1427 20.9856Z" fill="#E74011"/>
</g>
</g>
</svg>
